<svg width="72" height="56" viewBox="0 0 72 56" fill="none" xmlns="http://www.w3.org/2000/svg">
<path d="M16 56C11.6 56 7.83333 54.4333 4.7 51.3C1.56667 48.1667 0 44.4 0 40V0H64C66.2 0 68.0833 0.783333 69.65 2.35C71.2167 3.91667 72 5.8 72 8V20C72 22.2 71.2167 24.0833 69.65 25.65C68.0833 27.2167 66.2 28 64 28H56V40C56 44.4 54.4333 48.1667 51.3 51.3C48.1667 54.4333 44.4 56 40 56H16ZM16 48H40C42.2 48 44.0833 47.2167 45.65 45.65C47.2167 44.0833 48 42.2 48 40V8H8V40C8 42.2 8.78333 44.0833 10.35 45.65C11.9167 47.2167 13.8 48 16 48ZM56 20H64V8H56V20ZM16 48H8H48H16Z" fill="#B8D8BA"/>
</svg>
